<?xml version="1.0" encoding="UTF-8"?>
<svg width="128px" height="20px" viewBox="0 0 128 20" version="1.1" xmlns="http://www.w3.org/2000/svg" xmlns:xlink="http://www.w3.org/1999/xlink">
    <!-- Generator: Sketch 53.2 (72643) - https://sketchapp.com -->
    <title>rating_star</title>
    <desc>Created with Sketch.</desc>
    <g id="Page-1" stroke="none" stroke-width="1" fill="none" fill-rule="evenodd">
        <g id="rating_star" transform="translate(-1.000000, -1.000000)" fill="#FFA900">
            <path d="M128.958,8.555 C128.833,8.167 128.475,7.904 128.072,7.904 C128.072,7.904 121.543,7.904 121.543,7.904 C121.543,7.904 119.527,1.637 119.527,1.637 C119.401,1.249 119.044,0.986 118.64,0.986 C118.236,0.986 117.878,1.249 117.753,1.637 C117.753,1.637 115.736,7.903 115.736,7.903 C115.736,7.903 109.21,7.903 109.21,7.903 C108.806,7.903 108.448,8.166 108.323,8.553 C108.199,8.941 108.335,9.367 108.662,9.605 C108.662,9.605 113.941,13.479 113.941,13.479 C113.941,13.479 111.926,19.747 111.926,19.747 C111.801,20.135 111.938,20.558 112.264,20.798 C112.429,20.917 112.621,20.978 112.813,20.978 C113.005,20.978 113.197,20.917 113.36,20.798 C113.36,20.798 118.639,16.926 118.639,16.926 C118.639,16.926 123.92,20.798 123.92,20.798 C124.249,21.039 124.69,21.039 125.017,20.798 C125.345,20.56 125.478,20.135 125.355,19.749 C125.355,19.749 123.34,13.481 123.34,13.481 C123.34,13.481 128.62,9.606 128.62,9.606 C128.947,9.367 129.082,8.942 128.958,8.555 Z" id="path-1"/>
            <path d="M102.825,8.555 C102.7,8.167 102.342,7.904 101.939,7.904 C101.939,7.904 95.41,7.904 95.41,7.904 C95.41,7.904 93.394,1.637 93.394,1.637 C93.269,1.249 92.911,0.986 92.507,0.986 C92.103,0.986 91.745,1.249 91.62,1.637 C91.62,1.637 89.603,7.903 89.603,7.903 C89.603,7.903 83.077,7.903 83.077,7.903 C82.673,7.903 82.315,8.166 82.191,8.553 C82.067,8.941 82.202,9.367 82.529,9.605 C82.529,9.605 87.808,13.479 87.808,13.479 C87.808,13.479 85.793,19.747 85.793,19.747 C85.668,20.135 85.805,20.558 86.132,20.798 C86.296,20.917 86.488,20.978 86.68,20.978 C86.872,20.978 87.064,20.917 87.227,20.798 C87.227,20.798 92.506,16.926 92.506,16.926 C92.506,16.926 97.787,20.798 97.787,20.798 C98.115,21.039 98.557,21.039 98.884,20.798 C99.212,20.56 99.345,20.135 99.223,19.749 C99.223,19.749 97.207,13.481 97.207,13.481 C97.207,13.481 102.487,9.606 102.487,9.606 C102.814,9.367 102.949,8.942 102.825,8.555 Z" id="path-2"/>
            <path d="M75.317,8.555 C75.191,8.167 74.834,7.904 74.43,7.904 C74.43,7.904 67.902,7.904 67.902,7.904 C67.902,7.904 65.885,1.637 65.885,1.637 C65.76,1.249 65.402,0.986 64.998,0.986 C64.594,0.986 64.237,1.249 64.111,1.637 C64.111,1.637 62.094,7.903 62.094,7.903 C62.094,7.903 55.569,7.903 55.569,7.903 C55.165,7.903 54.807,8.166 54.682,8.553 C54.558,8.941 54.694,9.367 55.021,9.605 C55.021,9.605 60.299,13.479 60.299,13.479 C60.299,13.479 58.285,19.747 58.285,19.747 C58.16,20.135 58.297,20.558 58.623,20.798 C58.788,20.917 58.979,20.978 59.172,20.978 C59.364,20.978 59.555,20.917 59.719,20.798 C59.719,20.798 64.998,16.926 64.998,16.926 C64.998,16.926 70.279,20.798 70.279,20.798 C70.607,21.039 71.048,21.039 71.376,20.798 C71.704,20.56 71.837,20.135 71.714,19.749 C71.714,19.749 69.698,13.481 69.698,13.481 C69.698,13.481 74.979,9.606 74.979,9.606 C75.305,9.367 75.441,8.942 75.317,8.555 Z" id="path-3"/>
            <path d="M49.184,8.555 C49.058,8.167 48.701,7.904 48.297,7.904 C48.297,7.904 41.769,7.904 41.769,7.904 C41.769,7.904 39.752,1.637 39.752,1.637 C39.627,1.249 39.269,0.986 38.865,0.986 C38.461,0.986 38.104,1.249 37.978,1.637 C37.978,1.637 35.961,7.903 35.961,7.903 C35.961,7.903 29.436,7.903 29.436,7.903 C29.031,7.903 28.674,8.166 28.549,8.553 C28.425,8.941 28.561,9.367 28.888,9.605 C28.888,9.605 34.166,13.479 34.166,13.479 C34.166,13.479 32.152,19.747 32.152,19.747 C32.027,20.135 32.164,20.558 32.49,20.798 C32.655,20.917 32.846,20.978 33.039,20.978 C33.231,20.978 33.422,20.917 33.586,20.798 C33.586,20.798 38.865,16.926 38.865,16.926 C38.865,16.926 44.146,20.798 44.146,20.798 C44.474,21.039 44.915,21.039 45.243,20.798 C45.571,20.56 45.704,20.135 45.581,19.749 C45.581,19.749 43.566,13.481 43.566,13.481 C43.566,13.481 48.846,9.606 48.846,9.606 C49.172,9.367 49.308,8.942 49.184,8.555 Z" id="path-4"/>
            <path d="M21.675,8.555 C21.55,8.167 21.192,7.904 20.789,7.904 C20.789,7.904 14.26,7.904 14.26,7.904 C14.26,7.904 12.244,1.637 12.244,1.637 C12.119,1.249 11.761,0.986 11.357,0.986 C10.953,0.986 10.595,1.249 10.47,1.637 C10.47,1.637 8.453,7.903 8.453,7.903 C8.453,7.903 1.928,7.903 1.928,7.903 C1.523,7.903 1.165,8.166 1.041,8.553 C0.917,8.941 1.052,9.367 1.379,9.605 C1.379,9.605 6.658,13.479 6.658,13.479 C6.658,13.479 4.643,19.747 4.643,19.747 C4.518,20.135 4.655,20.558 4.982,20.798 C5.146,20.917 5.338,20.978 5.53,20.978 C5.722,20.978 5.914,20.917 6.077,20.798 C6.077,20.798 11.357,16.926 11.357,16.926 C11.357,16.926 16.638,20.798 16.638,20.798 C16.966,21.039 17.407,21.039 17.734,20.798 C18.062,20.56 18.196,20.135 18.073,19.749 C18.073,19.749 16.057,13.481 16.057,13.481 C16.057,13.481 21.337,9.606 21.337,9.606 C21.664,9.367 21.8,8.942 21.675,8.555 Z" id="path-5"/>
        </g>
    </g>
</svg>